<svg width="85" height="18" viewBox="0 0 85 18" fill="none" xmlns="http://www.w3.org/2000/svg">
<path d="M0.292893 8.29289C-0.0976311 8.68342 -0.0976311 9.31658 0.292893 9.70711L6.65685 16.0711C7.04738 16.4616 7.68054 16.4616 8.07107 16.0711C8.46159 15.6805 8.46159 15.0474 8.07107 14.6569L2.41421 9L8.07107 3.34315C8.46159 2.95262 8.46159 2.31946 8.07107 1.92893C7.68054 1.53841 7.04738 1.53841 6.65685 1.92893L0.292893 8.29289ZM1 10H30V8H1V10Z" fill="black"/>
<path d="M48.2734 15H46.75V9.60938H40.7969V15H39.2812V3.54688H40.7969V8.25H46.75V3.54688H48.2734V15ZM55.8984 12.8203V10.9844H54.8906C52.7552 10.9844 51.6875 11.5651 51.6875 12.7266C51.6875 13.1484 51.8438 13.474 52.1562 13.7031C52.4688 13.9271 52.8906 14.0391 53.4219 14.0391C53.9062 14.0391 54.375 13.9297 54.8281 13.7109C55.2812 13.4922 55.638 13.1953 55.8984 12.8203ZM55.8984 14.1484C55.1484 14.8464 54.1823 15.1953 53 15.1953C52.1771 15.1953 51.5 14.974 50.9688 14.5312C50.4375 14.0833 50.1719 13.5078 50.1719 12.8047C50.1719 10.8672 51.8411 9.89844 55.1797 9.89844H55.8984C55.8984 9.30469 55.8672 8.875 55.8047 8.60938C55.7422 8.33854 55.5677 8.11458 55.2812 7.9375C54.9948 7.76042 54.5391 7.67188 53.9141 7.67188C52.6016 7.67188 51.9245 8.14062 51.8828 9.07812H50.4141C50.5234 7.375 51.7161 6.52344 53.9922 6.52344C55.0547 6.52344 55.8828 6.73438 56.4766 7.15625C57.0703 7.57812 57.3672 8.40625 57.3672 9.64062V15H55.8984V14.1484ZM64.375 10.6797C65.3958 11.1432 65.9062 11.8203 65.9062 12.7109C65.9062 13.4245 65.5938 14.0182 64.9688 14.4922C64.349 14.9609 63.474 15.1953 62.3438 15.1953C61.3073 15.1953 60.4635 14.9714 59.8125 14.5234C59.1615 14.0703 58.8047 13.5104 58.7422 12.8438H60.2578C60.2578 13.1406 60.4427 13.4141 60.8125 13.6641C61.1823 13.9141 61.6823 14.0391 62.3125 14.0391C62.9583 14.0391 63.4661 13.9167 63.8359 13.6719C64.2057 13.4219 64.3906 13.0964 64.3906 12.6953C64.3906 12.3568 64.2943 12.0755 64.1016 11.8516C63.9089 11.6276 63.6693 11.4792 63.3828 11.4062C63.1016 11.3281 62.6536 11.2891 62.0391 11.2891H61.5078V10.1719H62.0391C62.9557 10.1719 63.5391 10.0495 63.7891 9.80469C64.0391 9.55469 64.1641 9.27083 64.1641 8.95312C64.1641 8.09896 63.5781 7.67188 62.4062 7.67188C61.2552 7.67188 60.6406 7.98698 60.5625 8.61719H59.0469C59.0469 8.00781 59.3464 7.50781 59.9453 7.11719C60.5443 6.72135 61.3438 6.52344 62.3438 6.52344C63.3958 6.52344 64.2161 6.7474 64.8047 7.19531C65.3932 7.64323 65.6875 8.21875 65.6875 8.92188C65.6875 9.71354 65.25 10.2995 64.375 10.6797ZM72.8047 12.8203V10.9844H71.7969C69.6615 10.9844 68.5938 11.5651 68.5938 12.7266C68.5938 13.1484 68.75 13.474 69.0625 13.7031C69.375 13.9271 69.7969 14.0391 70.3281 14.0391C70.8125 14.0391 71.2812 13.9297 71.7344 13.7109C72.1875 13.4922 72.5443 13.1953 72.8047 12.8203ZM72.8047 14.1484C72.0547 14.8464 71.0885 15.1953 69.9062 15.1953C69.0833 15.1953 68.4062 14.974 67.875 14.5312C67.3438 14.0833 67.0781 13.5078 67.0781 12.8047C67.0781 10.8672 68.7474 9.89844 72.0859 9.89844H72.8047C72.8047 9.30469 72.7734 8.875 72.7109 8.60938C72.6484 8.33854 72.474 8.11458 72.1875 7.9375C71.901 7.76042 71.4453 7.67188 70.8203 7.67188C69.5078 7.67188 68.8307 8.14062 68.7891 9.07812H67.3203C67.4297 7.375 68.6224 6.52344 70.8984 6.52344C71.9609 6.52344 72.7891 6.73438 73.3828 7.15625C73.9766 7.57812 74.2734 8.40625 74.2734 9.64062V15H72.8047V14.1484ZM83.3281 13.8516H84.5234V17.2266H83.0547V15H76.8438V17.2266H75.375V13.8516H76.1094C77.0729 12.487 77.5547 10.2396 77.5547 7.10938V6.71094H83.3281V13.8516ZM81.8516 7.86719H79.0234C78.9141 10.5443 78.4922 12.5391 77.7578 13.8516H81.8516V7.86719Z" fill="black"/>
</svg>
